<svg xmlns="http://www.w3.org/2000/svg" width="512" height="512" viewBox="0 0 512 512">
<g transform="translate(32 0)">
    <path d="M380.9 97.1C339-3.8 231.9-40.7 141.1 15.7 67.2 61.7 33.1 150.2 59 229.4L10.5 406.8c-2.6 9.6 6.2 18.3 15.8 15.7l175.2-48c74.9 24.2 159.5-1.7 206.4-65 56.4-76 19.6-183.1-27-212.4zM224.1 438.3c-35.7 0-70.5-9.7-100.7-28l-11.6-6.9-104.4 28.6 27.9-102.3-7.6-12.2c-49.5-79.7-23.7-184.6 56-230.8 79.7-46.2 184.6-20.4 230.8 59.3 46.2 79.7 20.4 184.6-59.3 230.8-25.7 15-54.9 22.9-85.1 22.9zm121-141.4c-6.6-3.3-39.1-19.3-45.2-21.5-6.1-2.2-10.6-3.3-15.1 3.3-4.5 6.6-17.3 21.5-21.2 25.9-3.9 4.4-7.8 5-14.4 1.7-39.3-19.7-65-35.2-91-79.6-6.9-11.8 6.9-11 19.7-36.6 2.2-4.5 1.1-8.4-.6-11.8-1.7-3.3-15.1-36.3-20.7-49.8-5.4-13-10.9-11.2-15.1-11.4-3.9-.2-8.4-.2-12.9-.2s-11.8 1.7-18 8.4c-6.1 6.6-23.4 22.9-23.4 55.9s24 64.9 27.3 69.4c3.3 4.5 47.1 72 114.1 100.9 15.9 6.9 28.3 11 38 14.1 16 5.1 30.6 4.4 42.1 2.7 12.8-1.9 39.1-16 44.6-31.4 5.5-15.4 5.5-28.5 3.9-31.4-1.7-2.9-6.1-4.6-12.7-7.9z" fill="#fff"/>
  </g>
</svg>